<svg xmlns="http://www.w3.org/2000/svg" viewBox="0 0 40 40"><title>ham_circle</title><g id="Layer_2" data-name="Layer 2"><g id="tablet"><path d="M20,40A20,20,0,0,1,3.89,8.15a.7.7,0,0,1,.65-.29A.71.71,0,0,1,5,9,18.58,18.58,0,0,0,32.48,33.76a.69.69,0,0,1,.7-.15.7.7,0,0,1,.48.52.72.72,0,0,1-.22.68A20,20,0,0,1,20,40Z"/><path d="M36.49,30.71a.73.73,0,0,1-.62-.36.74.74,0,0,1,0-.72A18.57,18.57,0,0,0,9.23,4.87a.72.72,0,0,1-.71.06.69.69,0,0,1-.41-.58A.72.72,0,0,1,8.4,3.7,20,20,0,0,1,37.1,30.37a.71.71,0,0,1-.61.34Z"/><circle cx="6.43" cy="6.43" r="0.71"/><circle cx="35" cy="32.14" r="0.71"/></g></g></svg>