<?xml version="1.0" encoding="utf-8"?>
<!-- Generator: Adobe Illustrator 24.0.0, SVG Export Plug-In . SVG Version: 6.00 Build 0)  -->
<svg version="1.1" id="Layer_1" xmlns="http://www.w3.org/2000/svg" xmlns:xlink="http://www.w3.org/1999/xlink" x="0px" y="0px"
	 viewBox="0 0 1200 1200" style="enable-background:new 0 0 1200 1200;" xml:space="preserve">
<g>
	<path d="M263.5,211.3c0.1-0.5,0.2-0.9,0.4-1.3c0.2-0.4,0.5-0.7,0.8-1c0.3-0.3,0.7-0.5,1.2-0.6c0.5-0.1,1-0.1,1.6,0
		c0.6,0.1,1.1,0.2,1.5,0.5c0.4,0.2,0.8,0.5,1,0.9c0.3,0.4,0.4,0.8,0.5,1.2c0.1,0.4,0.1,0.9,0,1.4c-0.1,0.5-0.2,0.9-0.4,1.3
		c-0.2,0.4-0.5,0.7-0.8,1c-0.3,0.3-0.8,0.4-1.2,0.6c-0.5,0.1-1,0.1-1.6,0c-0.6-0.1-1.1-0.2-1.5-0.5c-0.4-0.2-0.7-0.5-1-0.9
		c-0.2-0.3-0.4-0.7-0.5-1.2C263.4,212.2,263.4,211.8,263.5,211.3z"/>
	<path d="M293,216c0.1-0.5,0.2-0.9,0.5-1.3c0.2-0.4,0.5-0.7,0.9-1c0.3-0.3,0.8-0.4,1.2-0.5c0.5-0.1,1-0.1,1.6,0
		c0.6,0.1,1.1,0.3,1.5,0.5c0.4,0.3,0.7,0.6,1,0.9c0.2,0.4,0.4,0.8,0.5,1.2c0.1,0.4,0.1,0.9,0,1.4c-0.1,0.5-0.2,0.9-0.5,1.3
		c-0.2,0.4-0.5,0.7-0.9,1c-0.4,0.3-0.8,0.4-1.2,0.5c-0.5,0.1-1,0.1-1.6,0c-0.6-0.1-1.1-0.3-1.5-0.5c-0.4-0.2-0.7-0.6-1-0.9
		c-0.2-0.4-0.4-0.8-0.5-1.2C292.9,217,292.9,216.5,293,216z"/>
	<path d="M322.4,221.9c0.1-0.5,0.3-0.9,0.5-1.3c0.2-0.4,0.5-0.7,0.9-0.9c0.4-0.2,0.8-0.4,1.2-0.5c0.5-0.1,1-0.1,1.6,0.1
		c0.6,0.1,1.1,0.3,1.5,0.6c0.4,0.3,0.7,0.6,0.9,1c0.2,0.4,0.4,0.8,0.4,1.2c0.1,0.4,0,0.9-0.1,1.4c-0.1,0.5-0.3,0.9-0.5,1.3
		c-0.2,0.4-0.5,0.7-0.9,0.9c-0.4,0.2-0.8,0.4-1.3,0.5c-0.5,0.1-1,0-1.6-0.1c-0.6-0.1-1.1-0.3-1.5-0.6c-0.4-0.3-0.7-0.6-0.9-0.9
		c-0.2-0.4-0.4-0.8-0.4-1.2C322.2,222.8,322.3,222.3,322.4,221.9z"/>
	<path d="M359.9,234.1c-0.1-0.4-0.1-0.8-0.1-1.4c0-0.5,0.1-1.1,0.2-1.6c-0.6,0.3-1.2,0.6-1.8,0.9s-1.3,0.4-2.1,0.6
		c-0.7,0.1-1.5,0.2-2.3,0.2c-0.8,0-1.6-0.1-2.4-0.4c-1.4-0.4-2.5-0.9-3.5-1.6c-1-0.7-1.8-1.5-2.4-2.3c-0.6-0.9-1-1.8-1.1-2.9
		c-0.2-1-0.1-2.1,0.2-3.2c0.4-1.4,1-2.6,1.8-3.5c0.8-0.9,1.9-1.6,3.1-2c1.2-0.4,2.6-0.6,4.1-0.6c1.5,0,3.2,0.3,5,0.8l4.8,1.3l0.5-2
		c0.2-0.8,0.3-1.5,0.1-2.2c-0.1-0.7-0.4-1.3-0.8-1.9c-0.4-0.6-1-1.1-1.6-1.5c-0.7-0.4-1.5-0.8-2.4-1c-0.9-0.2-1.7-0.3-2.4-0.3
		c-0.7,0-1.4,0.2-2,0.4c-0.6,0.2-1.1,0.6-1.4,1c-0.4,0.4-0.7,0.9-0.8,1.4l-4.4-1.2c0.3-0.9,0.8-1.8,1.5-2.6c0.7-0.8,1.6-1.4,2.7-1.9
		c1.1-0.5,2.3-0.8,3.7-0.9c1.4-0.1,2.9,0.1,4.5,0.5c1.5,0.4,2.8,0.9,3.9,1.6c1.2,0.7,2.1,1.5,2.8,2.5c0.7,1,1.2,2.1,1.4,3.3
		c0.2,1.2,0.2,2.5-0.2,4l-3.2,11.9c-0.2,0.9-0.4,1.8-0.5,2.8c-0.1,1-0.1,1.9,0,2.7l-0.1,0.4L359.9,234.1z M353,228.7
		c0.9,0.2,1.7,0.3,2.5,0.3c0.8,0,1.6-0.1,2.3-0.3c0.7-0.2,1.3-0.5,1.9-0.8c0.6-0.3,1-0.7,1.4-1.2l1.4-5.2l-4.1-1.1
		c-2.6-0.7-4.7-0.8-6.3-0.5c-1.6,0.4-2.7,1.4-3.1,3c-0.2,0.6-0.2,1.2-0.1,1.8c0.1,0.6,0.3,1.1,0.6,1.6c0.3,0.5,0.8,0.9,1.4,1.3
		C351.5,228.2,352.2,228.5,353,228.7z"/>
	<path d="M383.8,201.8l12.9,4.1l-10.2,32.2l8.3,2.6l-1.2,3.7l-21.2-6.7l1.2-3.7l8.6,2.7l9-28.4l-8.6-2.7L383.8,201.8z"/>
	<path d="M410.9,251.2c-1.7-0.7-3.2-1.5-4.5-2.7c-1.2-1.1-2.2-2.4-2.8-3.9c-0.6-1.5-1-3-1-4.7c0-1.7,0.3-3.4,0.9-5.1l0.4-1
		c0.7-2,1.7-3.7,3-5c1.2-1.3,2.6-2.4,4.1-3.1c1.5-0.7,3-1.1,4.6-1.2c1.6-0.1,3.1,0.2,4.5,0.7c1.8,0.7,3.2,1.6,4.4,2.7
		c1.1,1.1,1.9,2.4,2.4,3.8c0.5,1.4,0.7,3,0.5,4.6c-0.1,1.6-0.5,3.3-1.1,5.1l-0.7,1.9l-17.8-6.6c-0.4,1.2-0.6,2.3-0.5,3.4
		c0,1.1,0.2,2.2,0.6,3.2c0.4,1,1,1.9,1.8,2.7c0.8,0.8,1.8,1.4,2.9,1.8c1.5,0.6,3,0.8,4.4,0.6c1.4-0.2,2.7-0.6,3.9-1.3l1.8,3
		c-0.6,0.5-1.4,0.9-2.2,1.2c-0.8,0.3-1.7,0.6-2.7,0.7c-1,0.1-2,0.2-3.2,0C413.2,252,412.1,251.7,410.9,251.2z M418.6,228.7
		c-0.9-0.3-1.7-0.5-2.6-0.4c-0.9,0-1.7,0.2-2.6,0.6c-0.8,0.4-1.6,0.9-2.4,1.7c-0.8,0.7-1.4,1.6-2,2.7l13.4,5l0.1-0.3
		c0.3-0.8,0.4-1.7,0.4-2.6c0-0.9-0.1-1.8-0.4-2.6c-0.3-0.8-0.7-1.6-1.4-2.3C420.6,229.7,419.7,229.1,418.6,228.7z"/>
	<path d="M461.4,268.5l15.1,7.7l-1.7,3.3l-20.2-10.3l1.5-3l23-10.1l-13.9-7.1l1.7-3.3l19.2,9.8l-1.5,2.9L461.4,268.5z"/>
	<path d="M496.1,291.9c0-0.4,0.1-0.8,0.3-1.3c0.2-0.5,0.4-1,0.6-1.5c-0.6,0.2-1.3,0.3-2,0.3c-0.7,0.1-1.4,0.1-2.2,0
		c-0.7-0.1-1.5-0.2-2.2-0.5c-0.8-0.2-1.5-0.6-2.2-1c-1.2-0.7-2.2-1.5-3-2.5c-0.8-0.9-1.3-1.9-1.6-2.9c-0.3-1-0.4-2-0.3-3.1
		c0.1-1,0.5-2,1-3c0.7-1.3,1.6-2.2,2.7-2.8c1.1-0.6,2.2-1,3.5-1.1s2.7,0.1,4.1,0.6c1.5,0.5,3,1.2,4.6,2.1l4.3,2.5l1.1-1.8
		c0.4-0.7,0.7-1.4,0.7-2.1c0.1-0.7,0-1.4-0.2-2c-0.2-0.7-0.6-1.3-1.2-1.9c-0.5-0.6-1.2-1.2-2.1-1.7c-0.8-0.5-1.5-0.8-2.3-0.9
		c-0.7-0.2-1.4-0.2-2-0.1c-0.6,0.1-1.2,0.3-1.7,0.6c-0.5,0.3-0.9,0.7-1.2,1.2l-3.9-2.3c0.5-0.8,1.2-1.5,2.1-2.1
		c0.9-0.6,1.9-0.9,3.1-1.1c1.2-0.2,2.4-0.1,3.8,0.1c1.4,0.3,2.7,0.8,4.2,1.7c1.3,0.8,2.4,1.6,3.3,2.6c0.9,1,1.6,2,2,3.1
		c0.4,1.1,0.6,2.3,0.5,3.5c-0.1,1.2-0.5,2.5-1.3,3.8l-6.3,10.6c-0.5,0.8-0.9,1.6-1.2,2.5c-0.4,0.9-0.6,1.8-0.7,2.6l-0.2,0.3
		L496.1,291.9z M491,284.8c0.8,0.5,1.5,0.8,2.3,1c0.8,0.2,1.5,0.3,2.3,0.3c0.7,0,1.4-0.1,2.1-0.3c0.6-0.2,1.2-0.4,1.7-0.7l2.8-4.6
		l-3.6-2.2c-2.3-1.4-4.2-2.1-5.9-2.2c-1.7-0.1-2.9,0.6-3.8,2.1c-0.3,0.6-0.6,1.1-0.6,1.7c-0.1,0.6-0.1,1.2,0.1,1.7
		c0.2,0.6,0.5,1.1,1,1.7C489.6,283.9,490.2,284.4,491,284.8z"/>
	<path d="M515.1,292.7l-1.7,3.4l2.7-2.7l13.2-11.5l2.4,1.7l-6.2,16.3l-1.8,3.8l2.9-3l12.1-12.2l3.3,2.3l-19.8,18.5l-2.9-2l5.9-15.7
		l1.8-3.8l-2.9,3l-12.7,11l-2.9-2l10.6-25l3.3,2.3L515.1,292.7z"/>
	<path d="M548.5,321.2c0.3-0.4,0.6-0.9,0.7-1.3c0.1-0.5,0.1-1-0.1-1.6c-0.2-0.6-0.5-1.3-0.9-2c-0.5-0.8-1.1-1.6-1.9-2.6
		c-1-1.2-1.8-2.4-2.5-3.5c-0.7-1.1-1.2-2.2-1.5-3.3c-0.3-1-0.4-2-0.2-3c0.1-0.9,0.6-1.8,1.3-2.7c0.7-0.8,1.5-1.5,2.5-1.9
		c1-0.4,2.1-0.6,3.2-0.6c1.2,0,2.4,0.3,3.6,0.8c1.2,0.5,2.4,1.2,3.6,2.2c1.3,1,2.3,2.1,3,3.3c0.7,1.2,1.2,2.3,1.5,3.5s0.2,2.3,0,3.4
		c-0.3,1.1-0.7,2.1-1.5,3l-3.5-2.9c0.4-0.4,0.6-1,0.7-1.6c0.1-0.6,0.1-1.2,0-1.9c-0.1-0.7-0.4-1.3-0.8-2c-0.4-0.7-1-1.3-1.7-1.9
		c-0.7-0.6-1.5-1.1-2.2-1.4c-0.7-0.3-1.3-0.5-1.9-0.5c-0.6,0-1.1,0.1-1.6,0.3c-0.5,0.2-0.9,0.5-1.2,0.9c-0.3,0.4-0.6,0.8-0.7,1.3
		c-0.1,0.4-0.1,0.9,0.1,1.5c0.2,0.6,0.5,1.2,0.9,1.9c0.5,0.7,1.1,1.6,1.9,2.5c1,1.3,1.9,2.5,2.6,3.7c0.7,1.2,1.2,2.3,1.5,3.3
		c0.3,1,0.3,2,0.2,3c-0.2,0.9-0.6,1.8-1.3,2.7c-0.7,0.9-1.6,1.6-2.7,2c-1,0.4-2.1,0.6-3.3,0.5c-1.2-0.1-2.4-0.4-3.6-0.9
		c-1.3-0.5-2.5-1.3-3.7-2.3c-1.4-1.1-2.5-2.3-3.3-3.6c-0.8-1.3-1.3-2.5-1.5-3.7c-0.2-1.2-0.2-2.4,0-3.6c0.3-1.1,0.8-2.1,1.5-3
		l3.5,2.9c-0.5,0.8-0.8,1.5-0.9,2.3c-0.1,0.8,0,1.5,0.3,2.2c0.3,0.7,0.6,1.4,1.1,2s1.1,1.2,1.6,1.7c1.5,1.2,2.9,1.9,4.2,2.1
		C546.7,322.4,547.7,322.1,548.5,321.2z"/>
	<path d="M559.4,335.5l12.1,11.8l-2.6,2.7l-16.3-15.8l2.3-2.4l24.9-2.9l-11.2-10.9l2.6-2.7l15.5,15l-2.2,2.3L559.4,335.5z"/>
	<path d="M581.1,364.2c-1.2-1.4-2.1-2.9-2.6-4.5c-0.5-1.6-0.7-3.2-0.6-4.8c0.1-1.6,0.6-3.1,1.4-4.6c0.8-1.5,1.9-2.8,3.3-4.1l0.8-0.7
		c1.6-1.4,3.3-2.4,5-3s3.4-0.8,5-0.7s3.1,0.5,4.6,1.2c1.4,0.7,2.6,1.6,3.6,2.8c1.3,1.4,2.1,2.9,2.5,4.4c0.4,1.5,0.5,3,0.3,4.5
		c-0.3,1.5-0.8,2.9-1.7,4.3c-0.9,1.4-2,2.7-3.4,3.9l-1.5,1.3l-12.4-14.4c-0.9,0.8-1.6,1.7-2.1,2.8c-0.5,1-0.9,2.1-1,3.1
		c-0.1,1.1,0,2.1,0.3,3.2c0.3,1.1,0.9,2.1,1.7,3c1.1,1.2,2.2,2.1,3.6,2.6c1.3,0.5,2.7,0.8,4,0.7l0.2,3.5c-0.8,0.1-1.6,0.1-2.5,0
		c-0.9-0.1-1.8-0.3-2.7-0.7c-0.9-0.3-1.9-0.8-2.8-1.5C582.8,366,581.9,365.2,581.1,364.2z M598.7,348.2c-0.6-0.7-1.3-1.2-2.1-1.6
		c-0.8-0.4-1.6-0.6-2.6-0.7c-0.9-0.1-1.9,0-2.9,0.3c-1,0.3-2,0.7-3.1,1.4l9.3,10.8l0.3-0.2c0.6-0.6,1.2-1.3,1.7-2.1
		c0.5-0.8,0.8-1.6,0.9-2.5s0.1-1.8-0.1-2.7C600,350,599.5,349.1,598.7,348.2z"/>
	<path d="M634,390.8l6.8,11.6l-23.1,13.5c-1.5,0.9-2.9,1.4-4.3,1.7c-1.4,0.3-2.7,0.2-3.9-0.1c-1.2-0.3-2.4-0.9-3.4-1.8
		c-1.1-0.9-2-2-2.8-3.4c-0.5-0.8-0.9-1.6-1.2-2.3c-0.4-0.7-0.7-1.5-1-2.4l3.4-1.6c0.1,0.3,0.2,0.6,0.4,1c0.2,0.4,0.4,0.8,0.6,1.2
		c0.2,0.4,0.4,0.8,0.6,1.1c0.2,0.3,0.4,0.6,0.5,0.8c0.4,0.7,0.9,1.4,1.5,1.9c0.6,0.5,1.2,0.9,2,1.1c0.7,0.2,1.5,0.2,2.5,0.1
		c0.9-0.2,1.9-0.6,3-1.2l19.7-11.5l-4.5-7.6L634,390.8z M644.2,394.4c0.6-0.4,1.3-0.5,2-0.4c0.7,0.1,1.2,0.6,1.7,1.4
		c0.5,0.8,0.6,1.5,0.4,2.2c-0.2,0.7-0.6,1.2-1.3,1.5c-0.6,0.4-1.3,0.5-1.9,0.3c-0.7-0.1-1.2-0.6-1.7-1.4c-0.5-0.8-0.6-1.5-0.4-2.1
		C643.1,395.3,643.5,394.8,644.2,394.4z"/>
	<path d="M628.6,438c-0.8-1.7-1.2-3.4-1.3-5.1c-0.1-1.7,0.2-3.3,0.7-4.8c0.6-1.5,1.4-2.9,2.6-4.1c1.2-1.2,2.6-2.2,4.3-3l0.9-0.4
		c1.9-0.9,3.8-1.4,5.6-1.5c1.8-0.1,3.5,0.1,5,0.7c1.5,0.5,2.9,1.3,4.1,2.4c1.2,1,2.1,2.3,2.7,3.6c0.8,1.7,1.2,3.4,1.2,5
		c0,1.6-0.3,3-1,4.4c-0.7,1.4-1.6,2.6-2.8,3.7c-1.2,1.1-2.7,2-4.4,2.8l-1.8,0.9l-8-17.2c-1.1,0.6-2,1.3-2.8,2.1
		c-0.8,0.8-1.4,1.7-1.8,2.7c-0.4,1-0.6,2.1-0.6,3.2c0,1.1,0.3,2.2,0.8,3.3c0.7,1.5,1.6,2.6,2.7,3.5c1.1,0.9,2.4,1.4,3.7,1.7
		l-0.8,3.4c-0.8-0.1-1.6-0.3-2.4-0.7c-0.8-0.3-1.7-0.8-2.4-1.4c-0.8-0.6-1.6-1.3-2.3-2.2C629.7,440.1,629.1,439.1,628.6,438z
		 M649.9,427.3c-0.4-0.8-0.9-1.5-1.6-2.1c-0.7-0.6-1.4-1.1-2.3-1.4c-0.9-0.3-1.8-0.5-2.9-0.5c-1,0-2.2,0.2-3.3,0.5l6,12.9l0.3-0.1
		c0.8-0.4,1.5-0.9,2.2-1.6c0.7-0.6,1.2-1.3,1.6-2.1c0.4-0.8,0.6-1.7,0.6-2.6C650.6,429.4,650.4,428.4,649.9,427.3z"/>
	<path d="M648.8,468.1c0.5-0.2,0.9-0.4,1.3-0.8c0.3-0.3,0.6-0.8,0.7-1.4c0.2-0.6,0.2-1.3,0.2-2.2c0-0.9-0.1-2-0.3-3.2
		c-0.2-1.5-0.3-3-0.4-4.3c0-1.3,0.1-2.5,0.4-3.6c0.3-1,0.7-1.9,1.3-2.7c0.6-0.7,1.4-1.3,2.5-1.7c1-0.4,2-0.5,3.1-0.3
		c1.1,0.2,2.1,0.5,3,1.2c1,0.6,1.9,1.5,2.7,2.5c0.8,1.1,1.5,2.3,2,3.7c0.6,1.5,0.9,3,0.9,4.4c0,1.4-0.1,2.6-0.5,3.7
		c-0.4,1.1-1,2.1-1.8,2.9c-0.8,0.8-1.7,1.4-2.8,1.8l-1.6-4.3c0.5-0.2,1-0.5,1.4-1c0.4-0.5,0.7-1,1-1.7c0.2-0.6,0.3-1.4,0.3-2.1
		c0-0.8-0.2-1.6-0.5-2.5c-0.3-0.9-0.7-1.7-1.2-2.3c-0.4-0.6-0.9-1.1-1.4-1.4c-0.5-0.3-1-0.5-1.6-0.6c-0.5-0.1-1,0-1.5,0.2
		c-0.5,0.2-0.9,0.4-1.2,0.8c-0.3,0.3-0.5,0.8-0.7,1.3c-0.1,0.6-0.2,1.3-0.2,2.1c0,0.8,0.1,1.9,0.3,3.2c0.2,1.7,0.4,3.2,0.4,4.5
		c0,1.4-0.1,2.6-0.4,3.6c-0.3,1-0.7,1.9-1.4,2.7c-0.6,0.7-1.5,1.3-2.5,1.6c-1.1,0.4-2.2,0.5-3.3,0.3c-1.1-0.2-2.1-0.6-3.1-1.2
		c-1-0.7-1.9-1.5-2.7-2.7c-0.8-1.1-1.5-2.4-2-3.9c-0.6-1.7-0.9-3.3-1-4.8c0-1.5,0.2-2.8,0.6-4c0.4-1.2,1-2.2,1.8-3
		c0.8-0.8,1.7-1.5,2.8-1.8l1.6,4.3c-0.9,0.4-1.5,0.9-2,1.5c-0.5,0.6-0.8,1.3-0.9,2c-0.1,0.7-0.2,1.5-0.1,2.3
		c0.1,0.8,0.3,1.6,0.6,2.3c0.7,1.8,1.5,3.1,2.5,3.9C646.7,468.2,647.7,468.5,648.8,468.1z"/>
	<path d="M680.5,483.4l-6.2,1.7l2.6,9.8l-3.4,0.9L671,486l-13.9,3.8c-1,0.3-1.8,0.6-2.4,1c-0.6,0.4-1,0.9-1.3,1.5
		c-0.3,0.5-0.4,1.1-0.4,1.7c0,0.6,0.1,1.3,0.3,1.9c0.1,0.5,0.3,1,0.5,1.4c0.2,0.5,0.4,1,0.6,1.4c0.2,0.5,0.4,0.9,0.6,1.3
		c0.2,0.4,0.4,0.7,0.5,1l-2.9,1.5c-0.3-0.3-0.6-0.7-0.9-1.2c-0.3-0.5-0.6-1-0.9-1.6c-0.3-0.6-0.6-1.2-0.8-1.9
		c-0.2-0.7-0.5-1.3-0.6-2c-0.3-1.1-0.4-2.2-0.4-3.3c0.1-1.1,0.3-2.1,0.8-3c0.5-0.9,1.3-1.7,2.3-2.5c1-0.7,2.3-1.3,3.9-1.7l13.9-3.8
		l-1.8-6.7l3.4-0.9l1.8,6.7l6.2-1.7L680.5,483.4z"/>
	<path d="M662.9,550.2c0.1,0.8,0.3,1.6,0.7,2.3c0.3,0.7,0.8,1.4,1.3,1.9c0.5,0.5,1.1,1,1.8,1.3c0.7,0.3,1.4,0.4,2.1,0.3l0.5,4.3
		c-1.2,0.1-2.3-0.1-3.5-0.5c-1.1-0.5-2.2-1.2-3.1-2.1c-0.9-0.9-1.7-2-2.3-3.2c-0.6-1.2-1-2.5-1.2-3.9c-0.2-2-0.1-3.8,0.5-5.4
		c0.5-1.6,1.4-2.9,2.5-4.1s2.4-2,3.9-2.7c1.5-0.7,3.2-1.1,4.9-1.3l1-0.1c1.7-0.2,3.4-0.1,5.1,0.2c1.6,0.3,3.1,0.9,4.5,1.8
		c1.3,0.9,2.4,2,3.3,3.4c0.9,1.4,1.4,3.1,1.7,5.1c0.2,1.6,0.1,3-0.3,4.4c-0.3,1.4-0.9,2.6-1.6,3.6c-0.7,1-1.7,1.9-2.8,2.6
		c-1.1,0.7-2.3,1.1-3.7,1.2l-0.5-4.3c0.8-0.1,1.5-0.4,2.2-0.8c0.7-0.4,1.2-0.9,1.7-1.6c0.5-0.6,0.8-1.4,1-2.2
		c0.2-0.8,0.3-1.7,0.2-2.6c-0.2-1.4-0.6-2.5-1.2-3.4c-0.7-0.9-1.5-1.6-2.5-2.1c-1-0.5-2-0.8-3.2-0.9c-1.2-0.1-2.3-0.1-3.4,0l-1,0.1
		c-1.2,0.1-2.3,0.4-3.4,0.8c-1.1,0.4-2.1,0.9-2.9,1.6c-0.8,0.7-1.5,1.5-1.9,2.5C662.9,547.5,662.8,548.8,662.9,550.2z"/>
	<path d="M665.5,574l0.8,16.9l-3.7,0.2l-1.1-22.7l3.3-0.2l20.2,14.9l-0.8-15.6l3.7-0.2l1,21.6l-3.2,0.2L665.5,574z"/>
	<path d="M662.6,615.8c0.3-0.2,0.8-0.3,1.3-0.4c0.5-0.1,1.1-0.2,1.6-0.2c-0.5-0.5-0.9-1-1.3-1.5c-0.4-0.6-0.8-1.2-1.1-1.9
		c-0.3-0.7-0.5-1.4-0.7-2.2c-0.2-0.8-0.3-1.6-0.3-2.5c0-1.4,0.2-2.7,0.6-3.8c0.4-1.1,1-2.1,1.7-2.9c0.7-0.8,1.5-1.4,2.5-1.8
		c1-0.4,2-0.6,3.1-0.6c1.5,0,2.7,0.3,3.8,0.9c1.1,0.6,2,1.4,2.7,2.5c0.7,1.1,1.3,2.3,1.6,3.8c0.4,1.5,0.5,3.2,0.5,5l0,5l2.1,0
		c0.8,0,1.5-0.1,2.2-0.4c0.6-0.3,1.2-0.7,1.6-1.2c0.5-0.5,0.8-1.2,1.1-2c0.2-0.8,0.4-1.6,0.4-2.6c0-0.9-0.1-1.7-0.3-2.4
		c-0.2-0.7-0.5-1.3-0.9-1.8c-0.4-0.5-0.8-0.9-1.3-1.1c-0.5-0.3-1-0.4-1.6-0.4l0-4.6c1,0,1.9,0.3,2.8,0.8c0.9,0.5,1.8,1.2,2.5,2.1
		c0.7,0.9,1.3,2,1.8,3.3c0.5,1.3,0.7,2.8,0.7,4.4c0,1.5-0.2,2.9-0.6,4.2c-0.4,1.3-0.9,2.4-1.7,3.3c-0.7,0.9-1.7,1.7-2.8,2.2
		c-1.1,0.5-2.4,0.8-3.9,0.8l-12.3-0.1c-0.9,0-1.8,0.1-2.8,0.2c-1,0.2-1.9,0.4-2.6,0.7l-0.4,0L662.6,615.8z M666.1,607.8
		c0,0.9,0.1,1.7,0.3,2.5c0.2,0.8,0.5,1.5,0.9,2.1c0.4,0.6,0.8,1.2,1.3,1.6c0.5,0.5,1,0.8,1.5,1.1l5.4,0l0-4.2c0-2.7-0.4-4.7-1.1-6.2
		c-0.8-1.5-2-2.2-3.7-2.2c-0.7,0-1.3,0.1-1.8,0.3c-0.6,0.2-1,0.5-1.4,1c-0.4,0.4-0.7,1-1,1.7C666.2,606.2,666.1,606.9,666.1,607.8z"
		/>
	<path d="M669.7,647c0.5,0,1-0.1,1.4-0.4c0.4-0.2,0.8-0.6,1.1-1.1c0.3-0.5,0.6-1.2,0.9-2.1c0.3-0.8,0.5-1.9,0.7-3.1
		c0.2-1.5,0.6-2.9,1-4.2c0.4-1.3,0.9-2.4,1.4-3.3s1.3-1.6,2.1-2.2c0.8-0.5,1.8-0.8,2.8-0.9c1.1,0,2.1,0.2,3.1,0.6
		c1,0.5,1.8,1.1,2.6,2s1.3,2,1.8,3.2c0.5,1.2,0.7,2.6,0.8,4.2c0.1,1.6-0.1,3.1-0.4,4.4c-0.4,1.3-0.9,2.5-1.6,3.4
		c-0.7,0.9-1.6,1.7-2.5,2.2c-1,0.5-2.1,0.8-3.2,0.9l-0.2-4.5c0.6,0,1.1-0.2,1.7-0.5c0.5-0.3,1-0.7,1.4-1.3c0.4-0.5,0.7-1.2,0.9-1.9
		c0.2-0.8,0.3-1.6,0.3-2.5c0-1-0.2-1.8-0.4-2.5c-0.2-0.7-0.6-1.3-0.9-1.8c-0.4-0.5-0.8-0.8-1.3-1c-0.5-0.2-1-0.3-1.5-0.3
		c-0.5,0-1,0.1-1.4,0.4c-0.4,0.2-0.8,0.6-1.1,1.1c-0.3,0.5-0.6,1.2-0.8,2c-0.2,0.8-0.4,1.9-0.6,3.1c-0.3,1.6-0.6,3.1-1,4.4
		c-0.4,1.3-0.9,2.4-1.5,3.3c-0.6,0.9-1.3,1.6-2.1,2.1c-0.8,0.5-1.8,0.8-2.9,0.8c-1.2,0.1-2.3-0.2-3.2-0.7c-1-0.5-1.8-1.2-2.6-2.1
		c-0.7-0.9-1.3-2-1.7-3.3c-0.4-1.3-0.7-2.7-0.7-4.3c-0.1-1.8,0.1-3.4,0.5-4.8c0.4-1.4,1-2.6,1.8-3.6c0.8-1,1.6-1.8,2.7-2.3
		s2.1-0.9,3.2-0.9l0.2,4.5c-0.9,0.1-1.7,0.4-2.3,0.8c-0.6,0.5-1.1,1-1.5,1.7c-0.4,0.7-0.6,1.4-0.7,2.2c-0.1,0.8-0.2,1.6-0.1,2.3
		c0.1,1.9,0.5,3.4,1.2,4.5C667.6,646.5,668.6,647,669.7,647z"/>
	<path d="M695.8,691.5l-3.8,1.2c1.6,0.6,2.9,1.6,3.9,2.8c1.1,1.2,1.8,2.6,2.2,4.3c0.3,1.4,0.4,2.6,0.3,3.8c-0.1,1.2-0.5,2.3-1.2,3.2
		c-0.6,1-1.5,1.8-2.7,2.5c-1.2,0.7-2.6,1.3-4.3,1.6l-16.4,3.7l-1-4.4l16.3-3.7c1.1-0.3,2.1-0.6,2.8-1s1.3-1,1.7-1.6
		c0.4-0.6,0.6-1.3,0.7-2.1c0.1-0.8,0-1.6-0.2-2.6c-0.3-1.5-1-2.7-2-3.7s-2.2-1.6-3.5-2l-18.6,4.2l-1-4.4l25.9-5.9L695.8,691.5z"/>
	<path d="M681.6,741c0.3-0.3,0.6-0.5,1.1-0.8c0.5-0.3,0.9-0.5,1.5-0.7c-0.6-0.3-1.1-0.7-1.7-1.1c-0.6-0.4-1.1-0.9-1.6-1.5
		c-0.5-0.6-0.9-1.2-1.3-1.9c-0.4-0.7-0.7-1.4-1-2.3c-0.4-1.3-0.6-2.6-0.5-3.8c0.1-1.2,0.3-2.3,0.7-3.3c0.4-1,1-1.8,1.8-2.5
		c0.8-0.7,1.7-1.2,2.8-1.5c1.4-0.4,2.7-0.5,3.9-0.3c1.2,0.2,2.3,0.7,3.3,1.5c1,0.8,1.9,1.9,2.7,3.2c0.8,1.3,1.5,2.9,2,4.6l1.5,4.7
		l2-0.6c0.8-0.2,1.4-0.6,1.9-1.1c0.5-0.5,0.9-1,1.2-1.7c0.3-0.6,0.4-1.4,0.4-2.2c0-0.8-0.1-1.7-0.4-2.6c-0.3-0.9-0.6-1.6-1-2.2
		s-0.9-1.1-1.4-1.5c-0.5-0.4-1-0.6-1.6-0.7c-0.6-0.1-1.1-0.1-1.7,0.1l-1.3-4.4c0.9-0.3,1.9-0.3,2.9-0.1c1,0.2,2,0.6,3,1.3
		c1,0.6,1.9,1.5,2.7,2.6c0.8,1.1,1.5,2.5,2,4c0.4,1.4,0.7,2.8,0.7,4.2c0,1.3-0.2,2.6-0.6,3.7c-0.4,1.1-1.1,2.1-2,2.9
		c-0.9,0.8-2.1,1.5-3.5,1.9l-11.8,3.6c-0.8,0.3-1.7,0.6-2.6,1.1c-0.9,0.4-1.7,0.9-2.3,1.4l-0.4,0.1L681.6,741z M682.5,732.3
		c0.3,0.8,0.6,1.6,1.1,2.3c0.4,0.7,0.9,1.2,1.5,1.7c0.5,0.5,1.1,0.9,1.7,1.2c0.6,0.3,1.2,0.5,1.8,0.6l5.1-1.6l-1.2-4
		c-0.8-2.5-1.8-4.4-2.9-5.6c-1.2-1.2-2.6-1.5-4.2-1c-0.6,0.2-1.2,0.5-1.6,0.9c-0.5,0.4-0.8,0.8-1.1,1.4c-0.3,0.5-0.4,1.2-0.4,1.9
		C682.1,730.7,682.3,731.5,682.5,732.3z"/>
	<path d="M719.8,798.5c-1.7,0.8-3.4,1.4-5.1,1.7c-1.7,0.3-3.3,0.3-4.7,0.1c-1.5-0.3-2.8-0.8-4-1.7c-1.2-0.9-2.1-2-2.9-3.5
		c-0.7-1.5-1.1-2.9-1.2-4.2c-0.1-1.3,0.1-2.6,0.6-3.8l-11.5,5.6l-2-4.1l33-16.1l1.8,3.7l-2.5,1.5c1.4,0.3,2.6,0.9,3.7,1.8
		c1.1,0.9,2,2,2.7,3.5c0.7,1.5,1.1,3,1.1,4.5c0,1.5-0.4,2.9-1.1,4.2c-0.7,1.3-1.7,2.5-3,3.7c-1.3,1.1-2.8,2.1-4.6,3L719.8,798.5z
		 M718.2,794.2c1.2-0.6,2.2-1.2,3.1-2c0.9-0.8,1.7-1.6,2.2-2.5c0.5-0.9,0.8-1.9,0.9-3s-0.2-2.2-0.7-3.3c-0.6-1.3-1.5-2.3-2.5-2.8
		c-1-0.6-2.2-0.9-3.4-1l-11.5,5.6c-0.7,1-1.1,2.1-1.3,3.2c-0.2,1.2,0.1,2.4,0.7,3.8c0.6,1.1,1.3,2,2.1,2.6c0.9,0.6,1.9,1,2.9,1.1
		c1.1,0.1,2.2,0.1,3.4-0.2c1.2-0.3,2.4-0.7,3.5-1.2L718.2,794.2z"/>
	<path d="M744.8,813.8c0.2,0.4,0.4,0.8,0.6,1.2c0.2,0.4,0.4,0.8,0.6,1.2c0.2,0.4,0.3,0.8,0.4,1.1c0.1,0.3,0.2,0.6,0.2,0.9l-4.1,1.7
		c-0.3-0.9-0.6-1.7-0.9-2.4c-0.3-0.7-0.7-1.5-1.2-2.2c-1.1-1.8-2.4-3.1-3.9-3.7c-1.5-0.6-3.2-0.8-5-0.4l-14.7,8.7l-2.3-3.9
		l22.8-13.5l2.2,3.7l-3.5,2.3c1.8,0.2,3.5,0.7,4.9,1.6C742.6,810.8,743.8,812.1,744.8,813.8z"/>
	<path d="M739.6,831c1.6-1.1,3.2-1.9,4.8-2.4c1.7-0.5,3.3-0.7,4.9-0.5c1.6,0.2,3.1,0.6,4.5,1.4c1.4,0.8,2.7,2,3.8,3.5
		c1.1,1.5,1.8,3.1,2.1,4.7c0.3,1.6,0.2,3.2-0.1,4.8c-0.4,1.5-1.1,3-2.1,4.4c-1,1.4-2.3,2.7-3.9,3.8L753,851
		c-1.6,1.1-3.2,1.9-4.8,2.4c-1.7,0.5-3.3,0.7-4.9,0.5c-1.6-0.1-3.1-0.6-4.5-1.5c-1.4-0.8-2.7-2-3.7-3.5c-1.1-1.5-1.8-3.1-2.1-4.7
		c-0.3-1.6-0.3-3.2,0.1-4.7c0.4-1.5,1.1-3,2.1-4.4c1-1.4,2.3-2.6,3.9-3.8L739.6,831z M741.7,835c-1.1,0.8-2,1.6-2.8,2.5
		c-0.8,0.9-1.4,1.9-1.7,3c-0.4,1-0.5,2.1-0.4,3.2c0.1,1.1,0.5,2.1,1.3,3.2c0.7,1,1.6,1.8,2.5,2.2c1,0.5,2,0.7,3.1,0.7
		c1.1,0,2.2-0.2,3.4-0.7c1.1-0.4,2.3-1,3.3-1.8l0.4-0.3c1.1-0.7,2-1.6,2.8-2.5c0.8-0.9,1.4-1.9,1.7-3c0.4-1,0.5-2.1,0.4-3.2
		c-0.1-1.1-0.5-2.1-1.3-3.2c-0.7-1-1.6-1.8-2.5-2.2c-1-0.5-2-0.7-3.1-0.7c-1.1,0-2.2,0.2-3.4,0.7c-1.1,0.4-2.3,1-3.3,1.8L741.7,835z
		"/>
	<path d="M764.7,874.7c0.4-0.3,0.7-0.7,0.9-1.2c0.2-0.4,0.3-1,0.2-1.6c0-0.6-0.2-1.3-0.5-2.2c-0.3-0.8-0.8-1.8-1.4-2.9
		c-0.7-1.4-1.3-2.7-1.8-3.9c-0.5-1.2-0.7-2.4-0.8-3.5c-0.1-1.1,0-2.1,0.3-3c0.3-0.9,0.9-1.7,1.7-2.4c0.8-0.7,1.8-1.1,2.8-1.4
		c1-0.2,2.1-0.2,3.3,0.1c1.1,0.3,2.3,0.7,3.4,1.4c1.1,0.7,2.2,1.7,3.2,2.8c1,1.3,1.8,2.5,2.3,3.8c0.5,1.3,0.8,2.5,0.8,3.7
		c0,1.2-0.2,2.3-0.7,3.3c-0.5,1-1.1,1.9-2,2.7l-2.9-3.5c0.4-0.4,0.8-0.8,1-1.4c0.2-0.6,0.3-1.2,0.3-1.9c0-0.7-0.2-1.4-0.4-2.1
		c-0.3-0.7-0.7-1.5-1.3-2.2c-0.6-0.7-1.2-1.3-1.9-1.7c-0.6-0.4-1.2-0.7-1.8-0.8c-0.6-0.1-1.1-0.2-1.7,0c-0.5,0.1-1,0.3-1.4,0.7
		c-0.4,0.3-0.7,0.7-0.9,1.1c-0.2,0.4-0.3,0.9-0.2,1.5c0.1,0.6,0.2,1.3,0.6,2.1c0.3,0.8,0.8,1.7,1.4,2.9c0.8,1.5,1.4,2.9,1.9,4.1
		c0.5,1.3,0.8,2.5,0.8,3.5c0.1,1.1,0,2.1-0.4,3c-0.3,0.9-0.9,1.7-1.8,2.4c-0.9,0.8-1.9,1.2-3,1.4c-1.1,0.2-2.2,0.2-3.3-0.1
		c-1.1-0.3-2.3-0.8-3.4-1.6c-1.1-0.8-2.2-1.8-3.2-3c-1.2-1.4-2-2.8-2.5-4.2c-0.5-1.4-0.8-2.7-0.8-4c0-1.3,0.2-2.4,0.7-3.5
		c0.5-1.1,1.1-2,2-2.7l2.9,3.5c-0.7,0.6-1.1,1.3-1.3,2.1c-0.2,0.7-0.3,1.5-0.1,2.2c0.1,0.7,0.4,1.5,0.7,2.2c0.4,0.7,0.8,1.4,1.3,1.9
		c1.2,1.5,2.5,2.4,3.7,2.8C762.7,875.6,763.8,875.4,764.7,874.7z"/>
	<path d="M776.6,898.6c-1.3-1.3-2.3-2.8-2.9-4.3c-0.6-1.6-0.9-3.1-0.9-4.7c0-1.6,0.4-3.2,1.1-4.7c0.7-1.5,1.7-3,3-4.3l0.7-0.7
		c1.5-1.5,3.1-2.6,4.8-3.3c1.7-0.7,3.4-1,5-1.1c1.6,0,3.2,0.3,4.6,0.9c1.5,0.6,2.7,1.4,3.8,2.5c1.3,1.4,2.3,2.8,2.8,4.3
		c0.5,1.5,0.7,3,0.5,4.5c-0.2,1.5-0.7,3-1.5,4.4c-0.8,1.4-1.9,2.8-3.2,4.1l-1.5,1.4L779.8,884c-0.8,0.9-1.5,1.8-1.9,2.9
		c-0.5,1-0.7,2.1-0.8,3.2c-0.1,1.1,0.1,2.1,0.5,3.2c0.4,1,1,2,1.9,2.9c1.1,1.2,2.4,2,3.7,2.4c1.3,0.4,2.7,0.6,4.1,0.4l0.4,3.5
		c-0.8,0.2-1.6,0.2-2.5,0.2c-0.9,0-1.8-0.2-2.8-0.5c-0.9-0.3-1.9-0.7-2.9-1.3C778.4,900.3,777.5,899.5,776.6,898.6z M793.2,881.5
		c-0.6-0.7-1.4-1.2-2.2-1.5c-0.8-0.4-1.7-0.5-2.6-0.5c-0.9,0-1.9,0.1-2.9,0.5c-1,0.3-2,0.9-3,1.6l10,10.2l0.2-0.2
		c0.6-0.7,1.1-1.4,1.5-2.2c0.4-0.8,0.7-1.7,0.8-2.5c0.1-0.9,0-1.8-0.3-2.7C794.5,883.2,794,882.3,793.2,881.5z"/>
	<path d="M801.9,917.4c0.6,0.5,1.3,1,2.1,1.3c0.8,0.3,1.5,0.5,2.3,0.5c0.8,0,1.5,0,2.2-0.3c0.7-0.2,1.3-0.6,1.8-1.2l3.2,2.8
		c-0.8,0.9-1.8,1.5-2.9,1.9c-1.2,0.4-2.4,0.6-3.7,0.6c-1.3,0-2.6-0.3-3.9-0.8c-1.3-0.5-2.5-1.2-3.5-2.1c-1.5-1.3-2.6-2.8-3.3-4.3
		c-0.7-1.5-1-3.1-0.9-4.7c0-1.6,0.4-3.1,1.1-4.7c0.7-1.5,1.6-3,2.7-4.3l0.7-0.8c1.2-1.3,2.4-2.4,3.9-3.3c1.4-0.9,2.9-1.4,4.5-1.7
		c1.6-0.3,3.1-0.2,4.7,0.3c1.6,0.4,3.2,1.3,4.7,2.7c1.2,1,2.1,2.2,2.8,3.4c0.7,1.2,1.1,2.5,1.2,3.8c0.2,1.3,0,2.5-0.3,3.8
		c-0.4,1.2-1,2.4-1.9,3.4l-3.2-2.8c0.5-0.6,0.9-1.3,1.1-2.1c0.2-0.8,0.3-1.5,0.2-2.3s-0.3-1.6-0.7-2.3c-0.4-0.8-0.9-1.4-1.6-2
		c-1.1-0.9-2.1-1.5-3.2-1.7c-1.1-0.2-2.2-0.2-3.2,0.1c-1,0.3-2,0.8-3,1.5c-0.9,0.7-1.8,1.5-2.5,2.3l-0.7,0.8c-0.8,0.9-1.4,1.8-2,2.8
		s-0.9,2.1-1.1,3.1c-0.2,1.1-0.1,2.1,0.3,3.2C800.1,915.4,800.8,916.4,801.9,917.4z"/>
	<path d="M826.4,937.2c0.7,0.5,1.4,0.9,2.1,1.1c0.8,0.3,1.5,0.4,2.3,0.4c0.8,0,1.5-0.2,2.2-0.4c0.7-0.3,1.2-0.7,1.7-1.3l3.4,2.6
		c-0.7,0.9-1.6,1.6-2.8,2.1c-1.1,0.5-2.3,0.8-3.6,0.8c-1.3,0-2.6-0.1-3.9-0.5c-1.3-0.4-2.5-1-3.7-1.8c-1.6-1.2-2.8-2.6-3.6-4
		c-0.8-1.5-1.2-3-1.3-4.6c-0.1-1.6,0.2-3.2,0.7-4.7c0.6-1.6,1.4-3.1,2.4-4.5l0.6-0.8c1.1-1.4,2.3-2.6,3.6-3.6c1.4-1,2.8-1.7,4.4-2
		c1.5-0.4,3.1-0.4,4.8-0.1c1.6,0.3,3.3,1.1,4.9,2.3c1.3,0.9,2.3,2,3,3.2c0.8,1.2,1.3,2.4,1.5,3.7c0.2,1.3,0.2,2.5,0,3.8
		c-0.3,1.3-0.8,2.4-1.6,3.5l-3.4-2.6c0.5-0.7,0.8-1.4,0.9-2.1c0.2-0.8,0.2-1.5,0-2.3c-0.1-0.8-0.4-1.5-0.9-2.3
		c-0.4-0.7-1-1.4-1.8-1.9c-1.1-0.8-2.2-1.3-3.3-1.4c-1.1-0.1-2.2,0-3.2,0.4c-1,0.4-2,0.9-2.8,1.7c-0.9,0.8-1.7,1.6-2.4,2.5l-0.6,0.8
		c-0.7,0.9-1.3,1.9-1.8,3s-0.8,2.1-0.8,3.2c-0.1,1.1,0.1,2.1,0.5,3.2C824.5,935.4,825.3,936.3,826.4,937.2z"/>
	<path d="M847.3,939.6c1-1.6,2.2-3,3.6-4c1.4-1.1,2.8-1.8,4.3-2.3c1.5-0.5,3.1-0.6,4.7-0.4c1.6,0.2,3.2,0.8,4.8,1.8
		c1.6,1,2.8,2.2,3.7,3.6c0.9,1.4,1.4,2.9,1.6,4.5c0.2,1.6,0.1,3.2-0.3,4.9c-0.4,1.7-1.2,3.3-2.2,4.9l-0.3,0.5c-1,1.6-2.2,3-3.6,4
		c-1.4,1.1-2.8,1.8-4.3,2.3c-1.5,0.5-3.1,0.6-4.7,0.3c-1.6-0.2-3.2-0.8-4.8-1.9c-1.6-1-2.8-2.2-3.7-3.6c-0.9-1.4-1.4-2.9-1.7-4.5
		c-0.2-1.6-0.1-3.2,0.3-4.9c0.4-1.7,1.1-3.3,2.2-4.9L847.3,939.6z M850.8,942.5c-0.7,1.1-1.3,2.2-1.6,3.4c-0.4,1.2-0.6,2.3-0.5,3.4
		c0,1.1,0.3,2.1,0.8,3.1c0.5,1,1.3,1.8,2.4,2.5c1,0.7,2.1,1,3.2,1.1c1.1,0.1,2.1-0.1,3.1-0.5c1-0.4,2-1,2.9-1.9
		c0.9-0.8,1.7-1.8,2.4-2.9l0.3-0.5c0.7-1.1,1.2-2.2,1.6-3.4c0.4-1.2,0.5-2.3,0.5-3.4c0-1.1-0.3-2.1-0.8-3.1s-1.3-1.8-2.3-2.5
		c-1.1-0.7-2.1-1.1-3.2-1.1c-1.1-0.1-2.1,0.1-3.1,0.5c-1,0.4-2,1-2.9,1.9c-0.9,0.8-1.7,1.8-2.4,2.9L850.8,942.5z"/>
	<path d="M876.2,969.8c0.2-0.4,0.5-0.8,0.9-1.1c0.3-0.3,0.7-0.5,1.1-0.7c0.4-0.1,0.9-0.2,1.3-0.1c0.5,0.1,1,0.2,1.5,0.5
		c0.5,0.3,0.9,0.6,1.2,1c0.3,0.4,0.5,0.8,0.6,1.2c0.1,0.4,0.1,0.9,0.1,1.3c-0.1,0.4-0.2,0.9-0.5,1.3c-0.2,0.4-0.5,0.8-0.9,1.1
		c-0.3,0.3-0.7,0.5-1.1,0.6c-0.4,0.1-0.9,0.2-1.3,0.1c-0.5-0.1-1-0.2-1.5-0.5c-0.5-0.3-0.9-0.6-1.2-1c-0.3-0.4-0.5-0.8-0.6-1.2
		c-0.1-0.4-0.1-0.8-0.1-1.3C875.8,970.6,875.9,970.2,876.2,969.8z"/>
	<path d="M903.9,984.2c0.2-0.4,0.5-0.8,0.8-1.1c0.3-0.3,0.7-0.6,1.1-0.7c0.4-0.2,0.8-0.2,1.3-0.2c0.5,0,1,0.2,1.5,0.4
		c0.5,0.3,1,0.6,1.3,0.9c0.3,0.4,0.6,0.7,0.7,1.2c0.1,0.4,0.2,0.9,0.1,1.3c0,0.4-0.2,0.9-0.4,1.3c-0.2,0.4-0.5,0.8-0.8,1.1
		c-0.3,0.3-0.7,0.5-1.1,0.7c-0.4,0.2-0.9,0.2-1.3,0.2c-0.5,0-1-0.2-1.5-0.4c-0.5-0.3-1-0.6-1.3-0.9c-0.3-0.3-0.6-0.7-0.7-1.1
		c-0.1-0.4-0.2-0.8-0.1-1.3C903.6,985.1,903.7,984.6,903.9,984.2z"/>
	<path d="M932.5,996.9c0.2-0.5,0.4-0.8,0.7-1.2c0.3-0.3,0.7-0.6,1-0.8c0.4-0.2,0.8-0.3,1.3-0.3c0.5,0,1,0.1,1.5,0.3
		c0.5,0.2,1,0.5,1.3,0.8c0.3,0.3,0.6,0.7,0.8,1.1c0.2,0.4,0.2,0.8,0.2,1.3c0,0.5-0.1,0.9-0.3,1.4c-0.2,0.4-0.4,0.8-0.7,1.2
		c-0.3,0.3-0.6,0.6-1,0.8c-0.4,0.2-0.8,0.3-1.3,0.2c-0.5,0-1-0.1-1.5-0.3c-0.5-0.2-1-0.5-1.3-0.8c-0.3-0.3-0.6-0.7-0.8-1.1
		c-0.2-0.4-0.2-0.8-0.2-1.3C932.2,997.8,932.3,997.4,932.5,996.9z"/>
</g>
</svg>
