<?xml version="1.0" standalone="no"?>
<!DOCTYPE svg PUBLIC "-//W3C//DTD SVG 20010904//EN"
 "http://www.w3.org/TR/2001/REC-SVG-20010904/DTD/svg10.dtd">
<svg version="1.0" xmlns="http://www.w3.org/2000/svg"
 width="700.000000pt" height="700.000000pt" viewBox="0 0 700.000000 700.000000"
 preserveAspectRatio="xMidYMid meet">
<metadata>
Created by potrace 1.11, written by Peter Selinger 2001-2013
</metadata>
<g transform="translate(0.000000,700.000000) scale(0.100000,-0.100000)"
fill="#000000" stroke="none">
<path d="M4495 5581 c-160 -40 -347 -117 -437 -179 -23 -16 -81 -69 -128 -117
-93 -95 -140 -125 -195 -125 -66 0 -108 30 -236 165 -113 121 -194 191 -254
220 -42 20 -76 26 -207 36 -326 25 -525 -31 -700 -197 -57 -54 -125 -93 -163
-94 -46 0 -100 25 -191 87 -111 75 -165 101 -235 112 -177 28 -303 -105 -337
-356 -16 -115 0 -212 74 -430 62 -183 65 -199 84 -375 32 -310 42 -500 34
-723 l-7 -210 38 -195 c33 -169 37 -208 33 -295 -6 -106 -26 -173 -73 -243
-28 -41 -30 -63 -13 -162 31 -178 -44 -326 -210 -416 -106 -58 -142 -85 -173
-131 -41 -59 -65 -134 -79 -246 l-12 -95 28 -52 c15 -28 46 -67 68 -87 l40
-36 370 9 c204 4 461 9 571 9 161 1 237 7 389 29 l189 27 67 -35 c98 -52 182
-69 335 -69 160 0 497 34 750 76 260 43 465 44 665 4 362 -73 417 -80 605 -81
164 0 193 2 331 31 83 17 174 41 203 53 106 46 165 150 165 290 -1 164 -99
283 -305 369 -44 18 -89 46 -108 65 l-33 34 -20 244 c-27 330 -27 739 0 1233
48 859 39 1126 -48 1380 -79 233 -217 359 -500 455 -121 41 -264 50 -375 21z
m186 -858 c89 -94 152 -192 167 -259 6 -27 3 -115 -9 -270 -37 -471 -35 -713
9 -939 26 -137 22 -246 -17 -405 -35 -143 -36 -172 -15 -432 8 -100 0 -141
-38 -184 -40 -46 -115 -82 -260 -128 -149 -46 -177 -46 -271 3 -165 85 -288
183 -340 271 -49 85 -60 155 -54 350 l6 175 -45 199 c-24 109 -47 223 -50 252
l-7 55 45 42 c74 68 73 65 74 317 0 199 2 232 21 290 49 154 122 274 247 407
74 79 214 203 267 237 46 29 132 55 184 56 46 0 54 -4 86 -37z m-1670 -22 c91
-35 129 -90 169 -247 27 -106 26 -214 -6 -365 -14 -68 -28 -176 -31 -239 -9
-193 31 -307 143 -416 l63 -61 -45 -44 c-25 -24 -57 -68 -71 -97 -32 -66 -28
-115 19 -222 30 -69 33 -83 32 -175 -1 -77 -8 -121 -28 -189 -79 -265 -275
-535 -451 -622 -67 -33 -80 -36 -127 -31 -135 16 -347 177 -455 345 -97 151
-124 366 -87 700 20 175 23 414 6 495 -11 58 -11 58 23 106 50 70 90 172 140
362 78 298 133 400 267 501 46 35 97 86 128 128 74 99 79 103 175 97 46 -3
104 -14 136 -26z"/>
</g>
</svg>
